PathFileType	4	(X/Y/Z)	C:\Users\Basilio\Documents\Thesis Gigler\squatting_fais\c3dfiles\039\SLS_pre_back1\markers_experimental.trc
DataRate	CameraRate	NumFrames	NumMarkers	Units	OrigDataRate	OrigDataStartFrame	OrigNumFrames
200.000000	200.000000	4	63	mm	200.000000	665	1775
Frame#	Time	FHD			LBHD			RBHD			C7			T10			CLAV			LSHO			LUUPA			LMUPA			LDUPA			LLEP			LMEP			LRAD			LUL			LRFIN			RSHO			RUPA1			RMUPA			RDUPA			RLEP			RMEP			RRAD			RUL			RUFIN			LASI			RASI			USACR			LSACR			RSACR			LTHI1			LTHI2			LTHI3			LTHI4			LLFC			LMFC			LTIB1			LTIB2			LTIB3			LTIB4			LLMAL			LMMAL			LHEE			LMT1			LMT2			LMT5			RTHI			RTHI2			RTHI3			RTHI4			RLFC			RMFC			RTIB1			RTIB2			RTIB3			RTIB4			RLMAL			RMMAL			RHEE			RMT1			RMT2			RMT5			*61			*62			
		X1	Y1	Z1	X2	Y2	Z2	X3	Y3	Z3	X4	Y4	Z4	X5	Y5	Z5	X6	Y6	Z6	X7	Y7	Z7	X8	Y8	Z8	X9	Y9	Z9	X10	Y10	Z10	X11	Y11	Z11	X12	Y12	Z12	X13	Y13	Z13	X14	Y14	Z14	X15	Y15	Z15	X16	Y16	Z16	X17	Y17	Z17	X18	Y18	Z18	X19	Y19	Z19	X20	Y20	Z20	X21	Y21	Z21	X22	Y22	Z22	X23	Y23	Z23	X24	Y24	Z24	X25	Y25	Z25	X26	Y26	Z26	X27	Y27	Z27	X28	Y28	Z28	X29	Y29	Z29	X30	Y30	Z30	X31	Y31	Z31	X32	Y32	Z32	X33	Y33	Z33	X34	Y34	Z34	X35	Y35	Z35	X36	Y36	Z36	X37	Y37	Z37	X38	Y38	Z38	X39	Y39	Z39	X40	Y40	Z40	X41	Y41	Z41	X42	Y42	Z42	X43	Y43	Z43	X44	Y44	Z44	X45	Y45	Z45	X46	Y46	Z46	X47	Y47	Z47	X48	Y48	Z48	X49	Y49	Z49	X50	Y50	Z50	X51	Y51	Z51	X52	Y52	Z52	X53	Y53	Z53	X54	Y54	Z54	X55	Y55	Z55	X56	Y56	Z56	X57	Y57	Z57	X58	Y58	Z58	X59	Y59	Z59	X60	Y60	Z60	X61	Y61	Z61	X62	Y62	Z62	X63	Y63	Z63	

666	3.325	-202.3033905029297	1727.166381835938	-662.4313354492189	-366.5630187988282	1717.645385742188	-778.4558715820315	-334.2015991210938	1719.798706054688	-640.4042358398439	-424.5385742187501	1556.967407226563	-719.4971313476564	-470.1509399414064	1250.568725585938	-747.1419677734376	nan	nan	nan	-352.1982116699219	1574.974731445313	-871.4000244140627	-185.2499237060547	1540.116821289063	-977.8133544921877	-162.9305419921875	1570.872802734375	-945.1052246093752	-115.8705444335938	1548.976928710938	-974.399597167969	-49.41502761840822	1557.547607421875	-967.419860839844	-45.68987655639649	1485.213012695313	-936.1536865234377	225.0995788574219	1584.940063476563	-864.4866333007815	227.9568634033204	1594.427612304688	-940.4378051757815	301.4265747070313	1628.4541015625	-854.0490722656252	-313.1572875976563	1556.17919921875	-569.4976806640626	-147.3971710205078	1491.589233398438	-482.8757934570314	-122.7260208129883	1526.36474609375	-509.715789794922	-78.4539260864258	1490.413696289063	-488.6643066406251	-16.76320266723633	1505.895874023438	-503.5069885253907	-13.41217708587647	1439.212768554688	-543.6434326171876	263.2489929199219	1557.89453125	-604.4092407226564	268.7412109375001	1546.585327148438	-529.3452758789064	346.1833496093751	1601.185546875	-601.5401000976564	-326.9401245117188	1061.991577148438	-891.463806152344	-302.1519165039063	1039.16455078125	-670.8681640625001	-491.8335571289064	1118.82958984375	-754.4358520507814	-500.2001953125001	1088.281982421875	-783.6030273437502	-492.4028930664064	1083.954711914063	-724.2496337890626	-358.0693054199219	796.7055664062502	-998.3338623046877	-310.1564636230469	728.7781372070314	-1018.105224609375	-263.4626159667969	738.4353637695314	-1016.313720703125	-325.3267822265626	669.1934814453126	-1010.240905761719	-305.0782165527344	580.6336059570314	-1012.489929199219	-266.4609069824219	532.3258056640626	-913.710144042969	-379.0306701660157	461.2707519531251	-987.6397094726565	-449.2958984375001	514.6932983398439	-1001.62646484375	-436.4211730957032	473.1951293945314	-995.7520141601565	-496.8524780273439	438.2426147460939	-941.6188964843752	-681.2105102539064	439.3359375000001	-921.8601074218752	-644.7395629882814	414.7555236816407	-846.068542480469	-720.7046508789064	492.1566772460939	-861.8966064453127	-685.0792846679689	261.2005310058594	-857.5117797851565	-705.6591796875001	265.8313293457032	-895.2263183593752	-757.9967651367189	304.1513977050782	-923.2193603515627	-296.3966979980469	774.3718261718752	-611.0195312500001	-243.3644561767579	733.2398681640626	-613.2897338867189	-213.6047668457032	744.6595458984376	-621.0936889648439	-248.7487945556641	649.0208129882814	-629.7698974609376	-252.4521026611329	516.5679321289064	-664.9252929687501	-219.6315307617188	521.2554321289064	-777.8343505859377	-247.2389526367188	311.1398315429688	-709.4116821289064	-342.5842285156251	260.5013732910157	-705.9874877929689	-298.7218322753907	244.5038299560547	-711.0623779296876	-289.0164489746094	198.2585754394532	-748.3910522460939	-371.4829406738282	115.6901473999024	-736.8613281250001	-338.8054504394532	139.5020599365235	-818.836608886719	-441.6157836914064	97.90635681152347	-792.2464599609377	-216.2903747558594	57.79692459106447	-805.216979980469	-219.946029663086	56.93410491943361	-759.0013427734376	-274.9713134765626	34.95263290405274	-708.9348144531251	nan	nan	nan	nan	nan	nan	
667	3.33	-201.8880157470704	1726.580810546875	-662.2734375000001	-366.3087158203126	1717.172485351563	-778.347106933594	-333.9617004394532	1719.48974609375	-640.2826538085939	-424.3981323242189	1556.52734375	-719.2947387695314	-470.6626586914064	1250.048828125	-747.5501098632814	nan	nan	nan	-352.4654846191407	1574.702514648438	-871.3665771484377	-185.0633697509766	1539.847412109375	-977.8010253906252	-162.6852264404297	1570.530029296875	-945.064392089844	-115.7737274169922	1548.4990234375	-974.4423828125002	-49.33870315551759	1556.969848632813	-967.4641113281252	-45.88178634643555	1484.8369140625	-936.420593261719	225.4004364013672	1584.240478515625	-864.8912353515627	228.0763702392579	1593.598510742188	-940.6504516601565	301.7092895507813	1627.535888671875	-854.1699829101565	-312.8454589843751	1555.601318359375	-569.4287719726564	-147.2208862304688	1490.966186523438	-482.6896972656251	-122.475082397461	1525.855346679688	-509.6148681640626	-78.23214721679689	1489.475830078125	-488.6087036132814	-16.60112190246582	1505.193115234375	-503.2925109863282	-13.19383525848389	1438.374145507813	-543.5996704101564	263.5039672851563	1557.263427734375	-604.3558959960939	269.3456115722657	1546.0078125	-529.1511230468751	346.3783264160157	1600.57080078125	-601.6571655273439	-326.9444580078126	1061.4296875	-891.4471435546877	-302.2808532714844	1038.81640625	-670.8591308593751	-491.8409118652345	1118.447021484375	-754.5689697265626	-500.0992431640626	1087.877563476563	-783.7888793945315	-492.4898986816407	1083.5673828125	-724.3729248046876	-358.6265869140626	796.2631835937502	-998.5289306640627	-310.7748107910157	728.2287597656251	-1018.332397460938	-264.0758056640626	737.6499023437501	-1016.559143066406	-326.0351257324219	668.8526000976564	-1010.500854492188	-305.8882141113282	580.1341552734376	-1012.909790039063	-267.0151977539063	531.6877441406251	-914.0335083007815	-380.0857543945313	460.8366699218751	-988.071472167969	-450.2937927246095	514.3398437500001	-1001.752197265625	-437.354949951172	472.7135620117189	-995.9417724609377	-497.6544189453126	437.7930908203126	-941.7269287109377	-682.0421142578126	439.026092529297	-921.8198242187502	-645.3654174804689	414.4985656738282	-845.9223632812502	-721.2951049804689	491.8187866210939	-861.7387695312502	-685.8424682617189	260.9056396484376	-857.096130371094	-706.6422119140626	265.4183654785157	-894.947692871094	-759.0618896484376	303.8152770996094	-922.862976074219	-296.4075012207032	774.1929931640627	-610.4422607421876	-243.4165496826172	732.8509521484376	-612.4172363281251	-213.8196411132813	744.5115356445314	-619.9807739257814	-248.7683258056641	648.6210327148439	-628.8964843750001	-252.1931457519532	516.3913574218751	-663.9390869140626	-218.7183990478516	521.0308837890626	-776.5420532226565	-247.2491149902344	310.7670593261719	-708.4603881835939	-342.6956481933594	260.6338195800782	-705.4920654296876	-298.8830871582032	244.6244201660157	-710.3220825195314	-289.0773925781251	198.1747283935547	-747.4834594726564	-371.6401672363282	115.6231307983399	-736.4928588867189	-338.4617614746094	139.7555084228516	-818.069763183594	-441.6719665527345	98.03748321533206	-792.0633544921877	-216.1878509521485	58.13457107543947	-804.8606567382815	-219.987289428711	57.16107177734376	-758.7189331054689	-275.0482788085938	34.78679275512696	-708.8634643554689	nan	nan	nan	nan	nan	nan	
668	3.335	-201.4932861328126	1726.076049804688	-662.1282958984376	-364.8952941894532	1716.424560546875	-777.8818969726565	-333.7427978515626	1718.9072265625	-640.0223999023439	-424.1531677246095	1556.050659179688	-719.0755004882814	-470.5280151367189	1249.611450195313	-747.6074218750001	nan	nan	nan	-352.2731628417969	1574.302856445313	-871.2307128906252	-184.93798828125	1539.395141601563	-977.6206665039065	-162.4626770019532	1570.106079101563	-944.8995361328127	-115.6247711181641	1548.048950195313	-974.436218261719	-49.20914459228517	1556.510986328125	-967.5302734375002	-45.74095153808594	1484.247192382813	-936.6404418945315	225.6311035156251	1583.111328125	-864.884704589844	228.1972961425782	1592.800170898438	-940.7166748046877	301.9671630859376	1626.712158203125	-854.371032714844	-312.5974731445313	1554.9580078125	-569.2368164062501	-147.0267486572266	1490.222045898438	-482.8416748046876	-122.1449661254883	1525.018188476563	-509.364227294922	-78.10764312744142	1488.494506835938	-488.2819824218751	-16.34337997436524	1504.456176757813	-503.5493469238282	-12.97678565979004	1437.689086914063	-543.6259765625001	263.7227783203126	1556.587768554688	-604.2701416015626	269.3491210937501	1545.023559570313	-529.2814941406251	346.4797668457032	1599.79638671875	-601.5486450195314	-326.8712158203126	1060.760131835938	-891.4127197265627	-302.3586425781251	1038.376586914063	-670.8406982421876	-491.8399353027345	1117.95166015625	-754.6831054687501	-500.0640563964845	1087.337524414063	-783.9261474609377	-492.5614013671876	1083.195190429688	-724.4866943359376	-359.1450805664063	795.807067871094	-998.7053833007815	-311.3423461914063	727.6989746093751	-1018.728637695313	-264.5854797363282	737.1765136718751	-1016.964233398438	-326.6457519531251	668.2325439453126	-1010.797180175781	-306.5240478515626	579.5747680664064	-1013.214294433594	-267.5699768066407	531.1646728515626	-914.4941406250002	-381.6219787597657	461.3105468750001	-988.6917724609377	-451.0104980468751	513.9155273437501	-1001.959350585938	-437.9619445800782	472.1883850097657	-996.1255493164065	-498.4648437500001	437.2362670898439	-942.0078125000002	-682.9978027343751	438.6995849609376	-921.833190917969	-646.0657958984376	414.1593627929689	-845.9499511718752	-721.7960815429689	491.5625610351564	-861.5811157226565	-686.7570800781251	260.6357727050782	-856.6564941406252	-707.4580688476564	265.1035461425782	-894.600280761719	-759.8721313476564	303.4949645996094	-922.3549804687502	-296.6528930664063	773.8526611328127	-610.0558471679689	-243.4603729248047	732.6757812500001	-611.5065307617189	-214.0262756347657	744.1994628906251	-618.8799438476564	-248.7497253417969	648.2609252929689	-627.8887939453126	-252.0075225830079	516.3021240234376	-662.8912963867189	-217.9940643310547	520.7996215820314	-775.3582153320315	-247.3492126464844	310.7201843261719	-707.3158569335939	-342.8558044433594	260.7000732421876	-704.7638549804689	-299.0325317382813	244.4549865722657	-709.7106323242189	-289.2069091796876	197.6973266601563	-746.9332885742189	-371.7189025878907	115.6171798706055	-736.1873779296876	-338.5300598144532	139.7099609375	-817.6749267578127	-441.6460571289064	98.11344146728518	-791.885437011719	-216.1493835449219	58.62343597412111	-804.4880981445315	-220.0695343017579	57.42829513549806	-758.4230957031251	-275.4475097656251	34.07080459594727	-709.0764160156251	nan	nan	nan	nan	nan	nan	
669	3.34	-201.1579895019532	1725.563354492188	-661.9237060546876	-364.7539672851563	1715.991088867188	-777.6717529296877	-333.4791259765626	1718.417236328125	-639.8601684570314	-423.8868408203126	1555.62158203125	-718.8975219726564	-470.0240478515626	1249.432739257813	-747.4263305664064	nan	nan	nan	-352.0844421386719	1573.83642578125	-871.0139770507815	-184.8869934082032	1538.890625	-977.5754394531252	-162.311279296875	1569.732299804688	-944.8039550781252	-115.5185012817383	1547.676391601563	-974.3941040039065	-48.94522857666017	1556.019287109375	-967.5139770507815	-46.07005691528321	1484.47216796875	-935.8633422851565	225.8346862792969	1582.409912109375	-865.1528930664065	228.473373413086	1591.988403320313	-940.983581542969	302.2938842773438	1625.59765625	-854.4107666015627	-312.3963623046876	1554.299926757813	-569.0589599609376	-146.7806701660157	1489.454711914063	-482.6861267089845	-121.9552459716797	1524.115234375	-509.2134094238282	-77.83663177490236	1487.989990234375	-488.3951110839845	-16.11673736572266	1503.646606445313	-503.2554626464845	-12.70693397521973	1437.088989257813	-543.4976196289064	263.9753723144532	1555.96337890625	-604.2709350585939	269.5418395996094	1544.462158203125	-529.2462768554689	346.5538024902344	1599.196655273438	-601.3856811523439	-326.6622924804688	1060.073608398438	-891.373962402344	-302.4228210449219	1037.954223632813	-670.8657836914064	-491.7715148925782	1117.416748046875	-754.7816772460939	-500.0970764160157	1087.025390625	-784.152282714844	-492.6269836425782	1082.84716796875	-724.6923828125001	-359.4875793457032	795.427429199219	-998.825866699219	-311.8085021972657	727.2671508789064	-1018.912170410156	-265.5536499023438	737.0113525390626	-1017.541137695313	-327.2458190917969	667.4877929687501	-1011.196411132813	-307.2000427246094	578.9561157226564	-1013.628356933594	-268.3320312500001	530.4613647460939	-914.9525146484377	-382.0276489257813	460.2672424316407	-988.7730712890627	-451.6987609863282	513.4693603515626	-1002.114562988281	-438.8440246582032	471.3940734863282	-996.5083618164065	-499.3354492187501	436.7213439941407	-942.1218261718752	-683.7402954101564	438.0337219238282	-921.8476562500002	-646.7778930664064	413.9668579101564	-846.1456298828127	-722.4571533203126	491.3316955566407	-861.522644042969	-687.5670166015626	260.2223815917969	-856.2368774414065	-708.7458496093751	264.2033081054688	-894.3235473632815	-761.0156250000001	303.6187744140626	-921.865905761719	-296.9888916015626	773.542907714844	-609.4686279296876	-243.9912719726563	732.0836181640626	-611.0098876953126	-214.0254669189454	744.1002197265626	-617.8750000000001	-248.6342315673829	647.8208007812501	-626.8905029296876	-251.8214416503907	516.2147216796876	-661.9826660156251	-217.1555938720704	520.5368041992189	-774.202575683594	-247.4705810546876	310.5187072753907	-706.3574829101564	-343.0979003906251	260.9164123535157	-704.0997924804689	-299.2115173339844	244.5632476806641	-708.7750854492189	-289.2254028320313	197.6033782958985	-746.1387329101564	-371.8327636718751	115.5332183837891	-735.9718017578126	-338.3469543457032	139.8011016845703	-817.092712402344	-441.6606445312501	98.19953155517581	-791.677185058594	-216.0640563964844	58.80915832519533	-804.1199340820315	-220.0729064941407	57.5618362426758	-758.2097167968751	-275.4585266113282	33.80809783935548	-709.0620117187501	nan	nan	nan	nan	nan	nan	
